<svg width="40" height="61" viewBox="0 0 40 61" fill="none" xmlns="http://www.w3.org/2000/svg">
<path d="M39.9992 20.547C39.9992 9.199 31.1552 0 20.2472 0C9.33719 0 0.495191 9.199 0.495191 20.547C0.495191 31.314 8.46019 43.581 18.5962 44.806C17.8852 44.985 17.9472 46.043 18.8002 46.043H18.0582C17.8197 46.0648 17.598 46.175 17.4366 46.3519C17.2752 46.5287 17.1857 46.7595 17.1857 46.999C17.1857 47.2385 17.2752 47.4693 17.4366 47.6461C17.598 47.823 17.8197 47.9332 18.0582 47.955H19.5242C19.4222 49.569 18.9772 51.277 17.6892 52.344C15.5502 54.112 12.7982 53.061 10.3102 52.987C7.29619 52.895 4.75119 54.18 2.57019 56.178C1.81219 56.871 0.96819 57.887 0.27919 58.655C-0.50581 59.53 0.53119 60.579 1.33819 59.62C2.88519 57.776 3.91219 56.491 5.97319 55.325C8.55519 53.864 10.9362 54.593 13.7352 54.745C16.9422 54.917 19.8392 53.39 20.7512 50.095C20.8972 49.566 20.9772 48.721 21.0102 47.956H22.4002C22.6386 47.9342 22.8603 47.824 23.0217 47.6471C23.1832 47.4703 23.2726 47.2395 23.2726 47C23.2726 46.7605 23.1832 46.5297 23.0217 46.3529C22.8603 46.176 22.6386 46.0658 22.4002 46.044H21.6972C22.5512 46.044 22.6132 44.985 21.9002 44.807C32.0332 43.581 39.9992 31.313 39.9992 20.547Z" fill="#004C4C"/>
</svg>
